<svg width="131" height="69" viewBox="0 0 131 69" fill="none" xmlns="http://www.w3.org/2000/svg">
<path d="M0 0.428574H6.85714V7.28571H0V0.428574ZM6.85714 0.428574H13.7143V7.28571H6.85714V0.428574ZM6.85714 7.28571H13.7143V14.1429H6.85714V7.28571ZM6.85714 14.1429H13.7143V21H6.85714V14.1429ZM6.85714 21H13.7143V27.8571H6.85714V21ZM0 21H6.85714V27.8571H0V21ZM0 14.1429H6.85714V21H0V14.1429ZM0 7.28571H6.85714V14.1429H0V7.28571ZM0 27.8571H6.85714V34.7143H0V27.8571ZM0 34.7143H6.85714V41.5714H0V34.7143ZM0 41.5714H6.85714V48.4286H0V41.5714ZM6.85714 34.7143H13.7143V41.5714H6.85714V34.7143ZM6.85714 27.8571H13.7143V34.7143H6.85714V27.8571ZM6.85714 41.5714H13.7143V48.4286H6.85714V41.5714ZM6.85714 48.4286H13.7143V55.2857H6.85714V48.4286ZM0 55.2857H6.85714V62.1429H0V55.2857ZM0 48.4286H6.85714V55.2857H0V48.4286ZM0 62.1429H6.85714V69H0V62.1429ZM6.85714 62.1429H13.7143V69H6.85714V62.1429ZM6.85714 55.2857H13.7143V62.1429H6.85714V55.2857ZM13.7143 62.1429H20.5714V69H13.7143V62.1429ZM20.5714 62.1429H27.4286V69H20.5714V62.1429ZM27.4286 62.1429H34.2857V69H27.4286V62.1429ZM27.4286 55.2857H34.2857V62.1429H27.4286V55.2857ZM20.5714 55.2857H27.4286V62.1429H20.5714V55.2857ZM13.7143 55.2857H20.5714V62.1429H13.7143V55.2857ZM41.125 0.428574H47.9821V7.28571H41.125V0.428574ZM47.9821 0.428574H54.8393V7.28571H47.9821V0.428574ZM54.8393 0.428574H61.6964V7.28571H54.8393V0.428574ZM61.6964 0.428574H68.5536V7.28571H61.6964V0.428574ZM68.5536 0.428574H75.4107V7.28571H68.5536V0.428574ZM75.4107 0.428574H82.2679V7.28571H75.4107V0.428574ZM75.4107 7.28571H82.2679V14.1429H75.4107V7.28571ZM68.5536 7.28571H75.4107V14.1429H68.5536V7.28571ZM61.6964 7.28571H68.5536V14.1429H61.6964V7.28571ZM54.8393 7.28571H61.6964V14.1429H54.8393V7.28571ZM47.9821 7.28571H54.8393V14.1429H47.9821V7.28571ZM41.125 7.28571H47.9821V14.1429H41.125V7.28571ZM82.2679 7.28571H89.125V14.1429H82.2679V7.28571ZM82.2679 14.1429H89.125V21H82.2679V14.1429ZM82.2679 21H89.125V27.8571H82.2679V21ZM75.4107 21H82.2679V27.8571H75.4107V21ZM75.4107 14.1429H82.2679V21H75.4107V14.1429ZM75.4107 27.8571H82.2679V34.7143H75.4107V27.8571ZM68.5536 27.8571H75.4107V34.7143H68.5536V27.8571ZM61.6964 27.8571H68.5536V34.7143H61.6964V27.8571ZM54.8393 27.8571H61.6964V34.7143H54.8393V27.8571ZM47.9821 27.8571H54.8393V34.7143H47.9821V27.8571ZM47.9821 21H54.8393V27.8571H47.9821V21ZM47.9821 14.1429H54.8393V21H47.9821V14.1429ZM41.125 14.1429H47.9821V21H41.125V14.1429ZM41.125 21H47.9821V27.8571H41.125V21ZM41.125 27.8571H47.9821V34.7143H41.125V27.8571ZM41.125 34.7143H47.9821V41.5714H41.125V34.7143ZM47.9821 34.7143H54.8393V41.5714H47.9821V34.7143ZM54.8393 34.7143H61.6964V41.5714H54.8393V34.7143ZM61.6964 34.7143H68.5536V41.5714H61.6964V34.7143ZM68.5536 34.7143H75.4107V41.5714H68.5536V34.7143ZM75.4107 34.7143H82.2679V41.5714H75.4107V34.7143ZM82.2679 34.7143H89.125V41.5714H82.2679V34.7143ZM82.2679 41.5714H89.125V48.4286H82.2679V41.5714ZM75.4107 41.5714H82.2679V48.4286H75.4107V41.5714ZM75.4107 55.2857H82.2679V62.1429H75.4107V55.2857ZM82.2679 55.2857H89.125V62.1429H82.2679V55.2857ZM82.2679 48.4286H89.125V55.2857H82.2679V48.4286ZM75.4107 48.4286H82.2679V55.2857H75.4107V48.4286ZM75.4107 62.1429H82.2679V69H75.4107V62.1429ZM68.5536 62.1429H75.4107V69H68.5536V62.1429ZM61.6964 62.1429H68.5536V69H61.6964V62.1429ZM54.8393 62.1429H61.6964V69H54.8393V62.1429ZM47.9821 62.1429H54.8393V69H47.9821V62.1429ZM41.125 62.1429H47.9821V69H41.125V62.1429ZM41.125 55.2857H47.9821V62.1429H41.125V55.2857ZM41.125 48.4286H47.9821V55.2857H41.125V48.4286ZM41.125 41.5714H47.9821V48.4286H41.125V41.5714ZM47.9821 41.5714H54.8393V48.4286H47.9821V41.5714ZM47.9821 48.4286H54.8393V55.2857H47.9821V48.4286ZM47.9821 55.2857H54.8393V62.1429H47.9821V55.2857ZM54.8393 55.2857H61.6964V62.1429H54.8393V55.2857ZM61.6964 55.2857H68.5536V62.1429H61.6964V55.2857ZM68.5536 55.2857H75.4107V62.1429H68.5536V55.2857ZM96 0.428574H102.857V7.28571H96V0.428574ZM102.857 0.428574H109.714V7.28571H102.857V0.428574ZM102.857 7.28571H109.714V14.1429H102.857V7.28571ZM102.857 14.1429H109.714V21H102.857V14.1429ZM102.857 21H109.714V27.8571H102.857V21ZM96 21H102.857V27.8571H96V21ZM96 14.1429H102.857V21H96V14.1429ZM96 7.28571H102.857V14.1429H96V7.28571ZM96 27.8571H102.857V34.7143H96V27.8571ZM96 34.7143H102.857V41.5714H96V34.7143ZM96 41.5714H102.857V48.4286H96V41.5714ZM102.857 34.7143H109.714V41.5714H102.857V34.7143ZM102.857 27.8571H109.714V34.7143H102.857V27.8571ZM102.857 41.5714H109.714V48.4286H102.857V41.5714ZM102.857 48.4286H109.714V55.2857H102.857V48.4286ZM96 55.2857H102.857V62.1429H96V55.2857ZM96 48.4286H102.857V55.2857H96V48.4286ZM96 62.1429H102.857V69H96V62.1429ZM102.857 62.1429H109.714V69H102.857V62.1429ZM102.857 55.2857H109.714V62.1429H102.857V55.2857ZM109.714 62.1429H116.571V69H109.714V62.1429ZM116.571 62.1429H123.429V69H116.571V62.1429ZM123.429 62.1429H130.286V69H123.429V62.1429ZM123.429 55.2857H130.286V62.1429H123.429V55.2857ZM116.571 55.2857H123.429V62.1429H116.571V55.2857ZM109.714 55.2857H116.571V62.1429H109.714V55.2857Z" fill="black"/>
</svg>
